<svg xmlns="http://www.w3.org/2000/svg" viewBox="0 0 512 512">
  <defs>
    <linearGradient id="bgGrad" x1="0%" y1="0%" x2="100%" y2="100%">
      <stop offset="0%" style="stop-color:#0f0c29"/>
      <stop offset="50%" style="stop-color:#302b63"/>
      <stop offset="100%" style="stop-color:#667eea"/>
    </linearGradient>
    <linearGradient id="shieldGrad" x1="0%" y1="0%" x2="100%" y2="100%">
      <stop offset="0%" style="stop-color:#667eea"/>
      <stop offset="100%" style="stop-color:#764ba2"/>
    </linearGradient>
    <filter id="glow">
      <feGaussianBlur stdDeviation="8" result="coloredBlur"/>
      <feMerge>
        <feMergeNode in="coloredBlur"/>
        <feMergeNode in="SourceGraphic"/>
      </feMerge>
    </filter>
  </defs>

  <!-- Background circle -->
  <circle cx="256" cy="256" r="256" fill="url(#bgGrad)"/>

  <!-- Glow effect -->
  <circle cx="256" cy="256" r="180" fill="rgba(102,126,234,0.08)" filter="url(#glow)"/>

  <!-- Shield body -->
  <path d="M256 100 L380 155 L380 270 C380 340 330 395 256 420 C182 395 132 340 132 270 L132 155 Z"
        fill="url(#shieldGrad)" opacity="0.95"/>

  <!-- Shield inner highlight -->
  <path d="M256 120 L365 168 L365 270 C365 333 320 383 256 406 C192 383 147 333 147 270 L147 168 Z"
        fill="none" stroke="rgba(255,255,255,0.2)" stroke-width="2"/>

  <!-- Star in center -->
  <polygon points="256,175 268,215 310,215 277,238 289,278 256,255 223,278 235,238 202,215 244,215"
           fill="#FFD93D" filter="url(#glow)" opacity="0.95"/>

  <!-- Small decorative stars -->
  <circle cx="190" cy="200" r="4" fill="#FFD93D" opacity="0.6"/>
  <circle cx="322" cy="180" r="3" fill="#aed6f1" opacity="0.5"/>
  <circle cx="170" cy="300" r="2" fill="#FFD93D" opacity="0.4"/>
  <circle cx="340" cy="320" r="3" fill="#aed6f1" opacity="0.4"/>
</svg>